# xmcd
#
# Track frame offsets: 
#        187
#        13767
#        27275
#        39097
#        52082
#        65515
#        77402
#        90587
#        105507
#        119067
#        133287
#        148200
#        161265
#        174485
#        189737
#        200530
#        213960
#        225677
#        238605
#        252585
#        271840
#        286942
#
# Disc length: 4010 seconds
#
# Revision: 4
# Processed by: cddbd v1.5.2PL0 Copyright (c) Steve Scherf et al.
# Submitted via: ExactAudioCopy v1.0b3
#
DISCID=3c0fa816
DTITLE=Various Artist - The Copulatin' Blues Compact Disk
DYEAR=1987
DGENRE=Blues
TTITLE0=Preachin' Blues - Sidney Bechet and his New Orleans Footwarmer
TTITLE0=s
TTITLE1=Stavin' Chain (That Rockin' Swing, #1) - Lil Johnson
TTITLE2=New Rubbin' On That Darn Old Thing - Oscar's Chicago Swingers
TTITLE3=The Candy Man - Rosetta Howard and the Harlem Hamfats
TTITLE4=Take Your Hand Off My Mojo - Coot Grant and Kid Wesley Wilson
TTITLE5=Don't You Make Me High - Merline Johnson, the Yas-Yas Girl
TTITLE6=Wet It! - Frankie Half-Pint Jaxon and the Harlem Hamfats
TTITLE7=Press My Button, Ring My Bell - Lil Johnson with Black Bob
TTITLE8=You Can't  Tell The Difference After Dark - Alberta Hunter
TTITLE9=Get Off With Me - Coot Grant and Kid Wesley Wilson
TTITLE10=How Do They Do It that Way? - Victoria Spivey and Red Allen's
TTITLE10=Orchestra
TTITLE11=If I Can't Sell It, I'll Keep Sittin' On It (Befor I Give It 
TTITLE11=Away) - Georgia White
TTITLE12=Yas! Yas! Yas! - Jimmy Strange, the Yas-Yas Man
TTITLE13=My Daddy Rocks Me With One Steady Roll - Tampa Red's Hokum Ja
TTITLE13=zz Band with Frankie Half-Pint Jaxon
TTITLE14=Stavin Chain (#2) - Johhny Temple with the Harlem Hamfats
TTITLE15=Please Warm My Weiner - Bo Carter
TTITLE16=You Stole My Cherry - Lil Johnson
TTITLE17=Sissy Man Blues - Connie McLean's Rhythm Boys
TTITLE18=You Can't Sleep In My Bed - Mary Dixon
TTITLE19=Winin' Boy - Jelly Roll Morton
TTITLE20=It's Tight Like That - Clara Smith
TTITLE21=Shave 'Em Dry - Lucille Bogan and Walter Roland
EXTD=YEAR: 1987
EXTT0=
EXTT1=
EXTT2=
EXTT3=
EXTT4=
EXTT5=
EXTT6=
EXTT7=
EXTT8=
EXTT9=
EXTT10=
EXTT11=
EXTT12=
EXTT13=
EXTT14=
EXTT15=
EXTT16=
EXTT17=
EXTT18=
EXTT19=
EXTT20=
EXTT21=
PLAYORDER=
